<?xml version="1.0" encoding="utf-8"?>
<!-- Generator: Adobe Illustrator 25.2.3, SVG Export Plug-In . SVG Version: 6.00 Build 0)  -->
<svg version="1.1" xmlns="http://www.w3.org/2000/svg" xmlns:xlink="http://www.w3.org/1999/xlink" x="0px" y="0px"
	 viewBox="0 0 300 313.611" style="enable-background:new 0 0 300 313.611;" xml:space="preserve">
<g id="ai2html-settings">
	<rect x="2296.301" y="-121.772" style="fill:none;" width="400" height="248.746"/>
	<text transform="matrix(1 0 0 1 2296.3005 -111.1216)" style="display:none;"><tspan x="0" y="0" style="display:inline;fill:#231F20; font-family:'MyriadPro-Regular'; font-size:15px;">ai2html-settings</tspan><tspan x="0" y="18" style="display:inline;fill:#231F20; font-family:'MyriadPro-Regular'; font-size:15px;">settings_version: 0.60</tspan><tspan x="0" y="36" style="display:inline;fill:#231F20; font-family:'MyriadPro-Regular'; font-size:15px;">image_format: svg</tspan><tspan x="0" y="54" style="display:inline;fill:#231F20; font-family:'MyriadPro-Regular'; font-size:15px;">responsiveness: dynamic</tspan><tspan x="0" y="72" style="display:inline;fill:#231F20; font-family:'MyriadPro-Regular'; font-size:15px;">output: one-file</tspan><tspan x="0" y="90" style="display:inline;fill:#231F20; font-family:'MyriadPro-Regular'; font-size:15px;">html_output_path: </tspan><tspan x="122.908" y="90" style="display:inline;fill:#231F20; font-family:'MyriadPro-Regular'; font-size:15px;">../memoria-migracion-spanish/src/ai2html/</tspan><tspan x="0" y="108" style="display:inline;fill:#231F20; font-family:'MyriadPro-Regular'; font-size:15px;">html_output_extension: .html</tspan><tspan x="0" y="126" style="display:inline;fill:#231F20; font-family:'MyriadPro-Regular'; font-size:15px;">image_output_path: ../assets/</tspan><tspan x="186.747" y="126" style="display:inline;fill:#231F20; font-family:'MyriadPro-Regular'; font-size:15px;">img/</tspan><tspan x="0" y="144" style="display:inline;fill:#231F20; font-family:'MyriadPro-Regular'; font-size:15px;">image_source_path: assets/img/</tspan><tspan x="0" y="162" style="display:inline;fill:#231F20; font-family:'MyriadPro-Regular'; font-size:15px;">local_preview_template: </tspan><tspan x="0" y="180" style="display:inline;fill:#231F20; font-family:'MyriadPro-Regular'; font-size:15px;">png_number_of_colors: 128</tspan><tspan x="0" y="198" style="display:inline;fill:#231F20; font-family:'MyriadPro-Regular'; font-size:15px;">jpg_quality: 60</tspan><tspan x="0" y="216" style="display:inline;fill:#231F20; font-family:'MyriadPro-Regular'; font-size:15px;">project_name: _defenders</tspan></text>
</g>
<g id="base_map" style="display:none;">
	
		<image style="display:inline;overflow:visible;" width="2069" height="1485" xlink:href="../../../../../../../Applications/MAMP/htdocs/movimiento/defenders@2x-80.jpg"  transform="matrix(0.2149 0 0 0.2149 -72.3613 -3)">
	</image>
	
		<image style="display:inline;overflow:visible;" width="2069" height="1485" xlink:href="../../../../../../../Applications/MAMP/htdocs/movimiento/defenders@2x-80.jpg"  transform="matrix(0.3431 0 0 0.3431 515.764 696.2495)">
	</image>
	
		<image style="display:inline;overflow:visible;" width="2069" height="1485" xlink:href="../../../../../../../Applications/MAMP/htdocs/movimiento/defenders@2x-80.jpg"  transform="matrix(0.4403 0 0 0.4403 1120.9684 -147.8071)">
	</image>
</g>
<g id="ref_1_" style="display:none;">
	
		<image style="overflow:visible;opacity:0.61;" width="2118" height="1414" xlink:href="../../../../../Desktop/old_desktop/Screen Shot 2021-11-05 at 3.56.43 PM.png"  transform="matrix(0.3582 0 0 0.3582 490.1206 697.2495)">
	</image>
	
		<image style="display:inline;overflow:visible;" width="608" height="608" xlink:href="1C079A40D3302750.jpg"  transform="matrix(0.0591 0 0 0.0591 859.0158 1040.0206)">
	</image>
	
		<image style="display:inline;overflow:visible;" width="608" height="608" xlink:href="1C079A40D330275C.jpg"  transform="matrix(0.0591 0 0 0.0591 977.0166 1094.5265)">
	</image>
	
		<image style="display:inline;overflow:visible;" width="609" height="609" xlink:href="1C079A40D330275D.jpg"  transform="matrix(0.0591 0 0 0.0591 1022.7139 1035.7141)">
	</image>
	
		<image style="display:inline;overflow:visible;" width="608" height="609" xlink:href="1C079A40D330275E.jpg"  transform="matrix(0.0591 0 0 0.0591 928.6414 900.4164)">
	</image>
	
		<image style="display:inline;overflow:visible;" width="607" height="607" xlink:href="1C079A40D330275F.jpg"  transform="matrix(0.0591 0 0 0.0591 747.8479 902.6633)">
	</image>
	
		<image style="display:inline;overflow:visible;" width="612" height="612" xlink:href="D194B5E85F5AC63.jpg"  transform="matrix(0.0591 0 0 0.0591 747.7 1031.8575)">
	</image>
	
		<image style="display:inline;overflow:visible;" width="608" height="608" xlink:href="D194B5E85F5AC60.jpg"  transform="matrix(0.0371 0 0 0.0371 93.4055 208.194)">
	</image>
	
		<image style="display:inline;overflow:visible;" width="608" height="608" xlink:href="D194B5E85F5AC61.jpg"  transform="matrix(0.0371 0 0 0.0371 217.0221 246.5646)">
	</image>
	
		<image style="display:inline;overflow:visible;" width="609" height="609" xlink:href="D194B5E85F5AC62.jpg"  transform="matrix(0.0371 0 0 0.0371 227.5124 191.4603)">
	</image>
	
		<image style="display:inline;overflow:visible;" width="608" height="609" xlink:href="D194B5E85F5AC7F.jpg"  transform="matrix(0.0371 0 0 0.0371 134.8004 128.2383)">
	</image>
	
		<image style="display:inline;overflow:visible;" width="607" height="607" xlink:href="D194B5E85F5AC78.jpg"  transform="matrix(0.0371 0 0 0.0371 24.3034 119.3196)">
	</image>
	
		<image style="display:inline;overflow:visible;" width="612" height="612" xlink:href="D194B5E85F5AC79.jpg"  transform="matrix(0.0371 0 0 0.0371 18.2957 212.0723)">
	</image>
	
		<image style="display:inline;overflow:visible;" width="608" height="608" xlink:href="D194B5E85F5AC7A.jpg"  transform="matrix(0.076 0 0 0.076 1553.0648 292.8199)">
	</image>
	
		<image style="display:inline;overflow:visible;" width="608" height="608" xlink:href="D194B5E85F5AC7B.jpg"  transform="matrix(0.076 0 0 0.076 1712.8168 363.3105)">
	</image>
	
		<image style="display:inline;overflow:visible;" width="609" height="609" xlink:href="D194B5E85F5AC7C.jpg"  transform="matrix(0.076 0 0 0.076 1771.5311 287.7452)">
	</image>
	
		<image style="display:inline;overflow:visible;" width="608" height="609" xlink:href="D194B5E85F5AC30.jpg"  transform="matrix(0.076 0 0 0.076 1650.6616 113.9073)">
	</image>
	
		<image style="display:inline;overflow:visible;" width="607" height="607" xlink:href="D194B5E85F5AC31.jpg"  transform="matrix(0.076 0 0 0.076 1418.3682 116.7942)">
	</image>
	
		<image style="display:inline;overflow:visible;" width="612" height="612" xlink:href="D194B5E85F5AC32.jpg"  transform="matrix(0.076 0 0 0.076 1410.6339 282.7901)">
	</image>
</g>
<g id="locator" style="display:none;">
	<circle style="display:inline;fill:#FCFCFC;" cx="711.688" cy="924.928" r="2.601"/>
	<circle style="display:inline;fill:#FCFCFC;" cx="702.088" cy="1056.584" r="2.601"/>
	<circle style="display:inline;fill:#FCFCFC;" cx="821.932" cy="1049.619" r="2.601"/>
	<circle style="display:inline;fill:#FCFCFC;" cx="888.429" cy="923.92" r="2.601"/>
	<circle style="display:inline;fill:#FCFCFC;" cx="991.615" cy="1057.641" r="2.601"/>
	<circle style="display:inline;fill:#FCFCFC;" cx="973.958" cy="1081.2" r="2.601"/>
	<circle style="display:inline;fill:#FCFCFC;" cx="50.269" cy="140.168" r="1.632"/>
	<circle style="display:inline;fill:#FCFCFC;" cx="44.247" cy="222.762" r="1.632"/>
	<circle style="display:inline;fill:#FCFCFC;" cx="119.431" cy="218.392" r="1.632"/>
	<circle style="display:inline;fill:#FCFCFC;" cx="161.148" cy="139.535" r="1.632"/>
	<circle style="display:inline;fill:#FCFCFC;" cx="225.881" cy="223.425" r="1.632"/>
	<circle style="display:inline;fill:#FCFCFC;" cx="214.804" cy="238.204" r="1.632"/>
	<circle style="display:inline;fill:#FCFCFC;" cx="1371.908" cy="145.402" r="3.342"/>
	<circle style="display:inline;fill:#FCFCFC;" cx="1359.573" cy="314.56" r="3.342"/>
	<circle style="display:inline;fill:#FCFCFC;" cx="1513.556" cy="305.612" r="3.342"/>
	<circle style="display:inline;fill:#FCFCFC;" cx="1598.995" cy="144.106" r="3.342"/>
	<circle style="display:inline;fill:#FCFCFC;" cx="1731.573" cy="315.919" r="3.342"/>
	<circle style="display:inline;fill:#FCFCFC;" cx="1708.886" cy="346.188" r="3.342"/>
	<circle style="display:inline;fill:#FCFCFC;" cx="711.688" cy="924.928" r="2.601"/>
	<circle style="display:inline;fill:#FCFCFC;" cx="702.088" cy="1056.584" r="2.601"/>
	<circle style="display:inline;fill:#FCFCFC;" cx="821.932" cy="1049.619" r="2.601"/>
	<circle style="display:inline;fill:#FCFCFC;" cx="888.429" cy="923.92" r="2.601"/>
	<circle style="display:inline;fill:#FCFCFC;" cx="991.615" cy="1057.641" r="2.601"/>
	<circle style="display:inline;fill:#FCFCFC;" cx="973.958" cy="1081.2" r="2.601"/>
</g>
<g id="text">
	<g style="display:none;">
		<rect x="669.747" y="1004.573" style="display:inline;fill:none;" width="42.165" height="21.088"/>
		<text transform="matrix(1 0 0 1 675.0118 1013.7357)" style="display:inline;"><tspan x="0" y="0" style="fill:#F7CDDD; font-family:'ProximaNova-Regular'; font-size:11px; letter-spacing:3;">Mam</tspan><tspan x="-5.179" y="9" style="fill:#F7CDDD; font-family:'ProximaNova-Regular'; font-size:9px;">840,000+</tspan></text>
	</g>
	<g style="display:none;">
		<text transform="matrix(1 0 0 1 686.7438 937.7138)" style="display:inline;"><tspan x="0" y="0" style="fill:#CED7F2; font-family:'ProximaNova-Regular'; font-size:11px; letter-spacing:3;">Chuj</tspan><tspan x="0.741" y="9" style="fill:#CED7F2; font-family:'ProximaNova-Regular'; font-size:9px;">90,000+</tspan></text>
	</g>
	<g style="display:none;">
		<text transform="matrix(1 0 0 1 815.2924 1025.3013)" style="display:inline;"><tspan x="0" y="0" style="fill:#CEF2CE; font-family:'ProximaNova-Regular'; font-size:11px; letter-spacing:3;">Achi</tspan><tspan x="-0.964" y="9" style="fill:#CEF2CE; font-family:'ProximaNova-Regular'; font-size:9px;">160,000+</tspan></text>
	</g>
	<g style="display:none;">
		<text transform="matrix(1 0 0 1 935.5201 1062.4633)" style="display:inline;"><tspan x="0" y="0" style="fill:#EFEFCE; font-family:'ProximaNova-Regular'; font-size:11px;">Ch’orti’</tspan><tspan x="10.335" y="9" style="fill:#EFEFCE; font-family:'ProximaNova-Regular'; font-size:9px;">110,000+</tspan></text>
	</g>
	<g style="display:none;">
		<text transform="matrix(1 0 0 1 863.7938 960.5581)" style="display:inline;"><tspan x="0" y="0" style="fill:#E6CEF2; font-family:'ProximaNova-Regular'; font-size:11px; letter-spacing:3;">Q’eqchi’</tspan><tspan x="6.615" y="9" style="fill:#E6CEF2; font-family:'ProximaNova-Regular'; font-size:9px;">1.3 million+</tspan></text>
	</g>
	<g style="display:none;">
		
			<text transform="matrix(1 0 0 1 995.3149 1055.6161)" style="display:inline;fill:#FFFFFF; font-family:'ProximaNova-Regular'; font-size:11px;">Juan</text>
	</g>
	<g style="display:none;">
		
			<text transform="matrix(1 0 0 1 976.5588 1091.0824)" style="display:inline;fill:#FFFFFF; font-family:'ProximaNova-Regular'; font-size:11px;">Wilmer</text>
	</g>
	<g style="display:none;">
		<rect x="705.463" y="1044.912" style="display:inline;fill:none;" width="36.366" height="12.738"/>
		
			<text transform="matrix(1 0 0 1 705.4626 1054.0756)" style="display:inline;fill:#FFFFFF; font-family:'ProximaNova-Regular'; font-size:11px;">Claudia</text>
	</g>
	<g style="display:none;">
		<rect x="714.289" y="912.955" style="display:inline;fill:none;" width="29.699" height="12.738"/>
		
			<text transform="matrix(1 0 0 1 714.2888 922.1185)" style="display:inline;fill:#FFFFFF; font-family:'ProximaNova-Regular'; font-size:11px;">Felipe</text>
	</g>
	<g style="display:none;">
		
			<text transform="matrix(1 0 0 1 891.8288 922.1556)" style="display:inline;fill:#FFFFFF; font-family:'ProximaNova-Regular'; font-size:11px;">Jakelin</text>
	</g>
	<g style="display:none;">
		<rect x="822.655" y="1051.341" style="display:inline;fill:none;" width="30.745" height="12.738"/>
		
			<text transform="matrix(1 0 0 1 822.655 1060.5042)" style="display:inline;fill:#FFFFFF; font-family:'ProximaNova-Regular'; font-size:11px;">Carlos</text>
	</g>
	<g style="display:none;">
		<rect x="1.769" y="70.448" style="display:inline;fill:none;" width="127.293" height="60.732"/>
		<text transform="matrix(1 0 0 1 8.1073 78.778)" style="display:inline;"><tspan x="0" y="0" style="fill:#FFFFFF; font-family:'ProximaNova-Regular'; font-size:10px;">Defensores del agua Nery </tspan><tspan x="0.125" y="10" style="fill:#FFFFFF; font-family:'ProximaNova-Regular'; font-size:10px;">Esteban Pedro y Domingo </tspan><tspan x="1.365" y="20" style="fill:#FFFFFF; font-family:'ProximaNova-Regular'; font-size:10px;">Esteban Pedro, en la mira </tspan><tspan x="3.15" y="30" style="fill:#FFFFFF; font-family:'ProximaNova-Regular'; font-size:10px;">por resistencia a represa </tspan><tspan x="15.545" y="40" style="fill:#FFFFFF; font-family:'ProximaNova-Regular'; font-size:10px;">hidroeléctrica en la </tspan><tspan x="5.015" y="50" style="fill:#FFFFFF; font-family:'ProximaNova-Regular'; font-size:10px;">microrregión de Ixquisis</tspan></text>
	</g>
	<g>
		<text transform="matrix(1 0 0 1 428.4738 1343.0404)"><tspan x="0" y="0" style="fill:#FFFFFF; font-family:'ProximaNova-Regular'; font-size:11px;">Much of the population in the </tspan><tspan x="-6.358" y="11" style="fill:#FFFFFF; font-family:'ProximaNova-Regular'; font-size:11px;">Western highlands is Indigenous</tspan></text>
	</g>
	<g>
		<text transform="matrix(1 0 0 1 837.9995 1343.0399)"><tspan x="0" y="0" style="fill:#FFFFFF; font-family:'ProximaNova-Regular'; font-size:18px;">|</tspan><tspan x="-74.258" y="11" style="fill:#FFFFFF; font-family:'ProximaNova-Regular'; font-size:11px;">While most of Guatemala City’s </tspan><tspan x="-85.456" y="22" style="fill:#FFFFFF; font-family:'ProximaNova-Regular'; font-size:11px;">3 million people are Ladino, internal </tspan><tspan x="-73.461" y="33" style="fill:#FFFFFF; font-family:'ProximaNova-Regular'; font-size:11px;">migration from rural Indigneous</tspan><tspan x="-58.914" y="44" style="fill:#FFFFFF; font-family:'ProximaNova-Regular'; font-size:11px;"> communities is common.</tspan></text>
	</g>
	<g>
		<text transform="matrix(1 0 0 1 1246.3873 701.8989)"><tspan x="0" y="0" style="fill:#FFFFFF; font-family:'ProximaNova-Regular'; font-size:12px;">Much of the population in the </tspan><tspan x="-6.936" y="12" style="fill:#FFFFFF; font-family:'ProximaNova-Regular'; font-size:12px;">Western highlands is Indigenous</tspan></text>
	</g>
	<g>
		<text transform="matrix(1 0 0 1 1590.2238 701.4996)"><tspan x="0" y="0" style="fill:#FFFFFF; font-family:'ProximaNova-Regular'; font-size:20px;">|</tspan><tspan x="-80.971" y="12" style="fill:#FFFFFF; font-family:'ProximaNova-Regular'; font-size:12px;">While most of Guatemala City’s </tspan><tspan x="-93.187" y="24" style="fill:#FFFFFF; font-family:'ProximaNova-Regular'; font-size:12px;">3 million people are Ladino, internal </tspan><tspan x="-80.101" y="36" style="fill:#FFFFFF; font-family:'ProximaNova-Regular'; font-size:12px;">migration from rural Indigneous</tspan><tspan x="-64.231" y="48" style="fill:#FFFFFF; font-family:'ProximaNova-Regular'; font-size:12px;"> communities is common.</tspan></text>
	</g>
	<line style="fill:none;stroke:#FFFFFF;stroke-miterlimit:10;" x1="57.219" y1="145.139" x2="57.219" y2="130.68"/>
	<g style="display:none;">
		<rect x="163.327" y="102.54" style="display:inline;fill:none;" width="137.718" height="41.242"/>
		<text transform="matrix(1 0 0 1 171.2173 110.8699)" style="display:inline;"><tspan x="0" y="0" style="fill:#FFFFFF; font-family:'ProximaNova-Regular'; font-size:10px;">Cinco integrantes del grupo </tspan><tspan x="2.5" y="10" style="fill:#FFFFFF; font-family:'ProximaNova-Regular'; font-size:10px;">campesino CODECA, en la </tspan><tspan x="6.52" y="20" style="fill:#FFFFFF; font-family:'ProximaNova-Regular'; font-size:10px;">mira por resistencia a los </tspan><tspan x="16.935" y="30" style="fill:#FFFFFF; font-family:'ProximaNova-Regular'; font-size:10px;">desalojos de tierras.</tspan></text>
	</g>
	<g style="display:none;">
		<rect x="192.29" y="248.602" style="display:inline;fill:none;" width="81.569" height="55.644"/>
		<text transform="matrix(1 0 0 1 192.2901 256.9319)" style="display:inline;"><tspan x="0" y="0" style="fill:#FFFFFF; font-family:'ProximaNova-Regular'; font-size:10px;">Medardo Alonzo </tspan><tspan x="0" y="10" style="fill:#FFFFFF; font-family:'ProximaNova-Regular'; font-size:10px;">Lucero, defensor </tspan><tspan x="0" y="20" style="fill:#FFFFFF; font-family:'ProximaNova-Regular'; font-size:10px;">ch’orti’, en la mira </tspan><tspan x="0" y="30" style="fill:#FFFFFF; font-family:'ProximaNova-Regular'; font-size:10px;">por resistencia a </tspan><tspan x="0" y="40" style="fill:#FFFFFF; font-family:'ProximaNova-Regular'; font-size:10px;">la minería</tspan></text>
	</g>
	<line style="fill:none;stroke:#FFFFFF;stroke-miterlimit:10;" x1="236.593" y1="158.249" x2="236.593" y2="143.79"/>
	<line style="fill:none;stroke:#FFFFFF;stroke-miterlimit:10;" x1="218.923" y1="248.585" x2="218.923" y2="239.652"/>
	<g style="display:none;">
		<rect x="50.447" y="215.465" style="display:inline;fill:none;" width="158.532" height="34.097"/>
		<text transform="matrix(1 0 0 1 68.4247 223.7948)" style="display:inline;"><tspan x="0" y="0" style="fill:#FFFFFF; font-family:'ProximaNova-Regular'; font-size:10px;">Paulina Cruz Ruiz, autoridad </tspan><tspan x="-14.399" y="10" style="fill:#FFFFFF; font-family:'ProximaNova-Regular'; font-size:10px;">ancestral maya achi, en la mira por </tspan><tspan x="11.365" y="20" style="fill:#FFFFFF; font-family:'ProximaNova-Regular'; font-size:10px;">resistencia a la minería</tspan></text>
	</g>
	<line style="fill:none;stroke:#FFFFFF;stroke-miterlimit:10;" x1="129.813" y1="215.496" x2="129.813" y2="207.907"/>
	
		<rect x="-0.25" style="opacity:0.08;fill:none;stroke:#FFFFFF;stroke-width:0.001;stroke-miterlimit:10;" width="300" height="313.611"/>
	<g>
		<rect x="638.598" y="854.204" style="fill:none;" width="167.961" height="56.202"/>
		<text transform="matrix(1 0 0 1 638.6283 863.3665)"><tspan x="0" y="0" style="fill:#FFFFFF; font-family:'ProximaNova-Regular'; font-size:11px;">Defensores del agua Nery Esteban </tspan><tspan x="3.916" y="11" style="fill:#FFFFFF; font-family:'ProximaNova-Regular'; font-size:11px;">Pedro y Domingo Esteban Pedro, </tspan><tspan x="19.315" y="22" style="fill:#FFFFFF; font-family:'ProximaNova-Regular'; font-size:11px;">en la mira por resistencia a </tspan><tspan x="18.155" y="33" style="fill:#FFFFFF; font-family:'ProximaNova-Regular'; font-size:11px;">represa hidroeléctrica en la </tspan><tspan x="26.427" y="44" style="fill:#FFFFFF; font-family:'ProximaNova-Regular'; font-size:11px;">microrregión de Ixquisis</tspan></text>
	</g>
	<line style="display:none;fill:none;stroke:#FFFFFF;stroke-miterlimit:10;" x1="722.579" y1="932.684" x2="722.579" y2="909.607"/>
	<g>
		<rect x="934.551" y="887.504" style="fill:none;" width="148.127" height="44.279"/>
		<text transform="matrix(1 0 0 1 941.5488 896.6673)"><tspan x="0" y="0" style="fill:#FFFFFF; font-family:'ProximaNova-Regular'; font-size:11px;">Cinco integrantes del grupo </tspan><tspan x="2.75" y="11" style="fill:#FFFFFF; font-family:'ProximaNova-Regular'; font-size:11px;">campesino CODECA, en la </tspan><tspan x="7.172" y="22" style="fill:#FFFFFF; font-family:'ProximaNova-Regular'; font-size:11px;">mira por resistencia a los </tspan><tspan x="18.628" y="33" style="fill:#FFFFFF; font-family:'ProximaNova-Regular'; font-size:11px;">desalojos de tierras.</tspan></text>
	</g>
	<g>
		<rect x="904.315" y="1097.814" style="fill:none;" width="202.004" height="24.965"/>
		<text transform="matrix(1 0 0 1 904.315 1106.9769)"><tspan x="0" y="0" style="fill:#FFFFFF; font-family:'ProximaNova-Regular'; font-size:11px;">Medardo Alonzo Lucero, defensor ch’orti’, </tspan><tspan x="0" y="11" style="fill:#FFFFFF; font-family:'ProximaNova-Regular'; font-size:11px;">en la mira por resistencia a la minería</tspan></text>
	</g>
	<g>
		<text transform="matrix(1 0 0 1 849.7493 1163.8701)"><tspan x="0" y="0" style="fill:#FFFFFF; font-family:'ProximaNova-Regular'; font-size:11px;">Defensor xinka Alejandro Hernández García, </tspan><tspan x="0" y="11" style="fill:#FFFFFF; font-family:'ProximaNova-Regular'; font-size:11px;">en la mira por resistencia a la minería</tspan></text>
	</g>
	
		<line style="display:none;fill:none;stroke:#FFFFFF;stroke-miterlimit:10;" x1="1008.615" y1="954.859" x2="1008.615" y2="931.782"/>
	
		<line style="display:none;fill:none;stroke:#FFFFFF;stroke-miterlimit:10;" x1="980.163" y1="1097.787" x2="980.163" y2="1083.53"/>
	<g>
		<rect x="711.77" y="1044.926" style="fill:none;" width="253.023" height="25.005"/>
		<text transform="matrix(1 0 0 1 713.0928 1054.0892)"><tspan x="0" y="0" style="fill:#FFFFFF; font-family:'ProximaNova-Regular'; font-size:11px;">Paulina Cruz Ruiz, autoridad ancestral maya achi, en </tspan><tspan x="43.367" y="11" style="fill:#FFFFFF; font-family:'ProximaNova-Regular'; font-size:11px;">la mira por resistencia a la minería</tspan></text>
	</g>
	<line style="display:none;fill:none;stroke:#FFFFFF;stroke-miterlimit:10;" x1="838.44" y1="1044.975" x2="838.44" y2="1032.865"/>
	
		<line style="display:none;fill:none;stroke:#FFFFFF;stroke-miterlimit:10;" x1="833.243" y1="1166.227" x2="846.999" y2="1166.227"/>
	<g>
		<rect x="1294.208" y="69.939" style="fill:none;" width="185.328" height="63.258"/>
		<text transform="matrix(1 0 0 1 1295.2898 79.9351)"><tspan x="0" y="0" style="fill:#FFFFFF; font-family:'ProximaNova-Regular'; font-size:12px;">Defensores del agua Nery Esteban </tspan><tspan x="4.271" y="12" style="fill:#FFFFFF; font-family:'ProximaNova-Regular'; font-size:12px;">Pedro y Domingo Esteban Pedro, </tspan><tspan x="-0.588" y="24" style="fill:#FFFFFF; font-family:'ProximaNova-Regular'; font-size:12px;">en la mira por resistencia a represa </tspan><tspan x="6.468" y="36" style="fill:#FFFFFF; font-family:'ProximaNova-Regular'; font-size:12px;">hidroeléctrica en la microrregión </tspan><tspan x="63.827" y="48" style="fill:#FFFFFF; font-family:'ProximaNova-Regular'; font-size:12px;">de Ixquisis</tspan></text>
	</g>
	
		<line style="display:none;fill:none;stroke:#FFFFFF;stroke-miterlimit:10;" x1="1386.385" y1="155.622" x2="1386.385" y2="132.392"/>
	<g>
		<rect x="1637.773" y="120.42" style="fill:none;" width="232.037" height="40.07"/>
		<text transform="matrix(1 0 0 1 1650.4016 130.4165)"><tspan x="0" y="0" style="fill:#FFFFFF; font-family:'ProximaNova-Regular'; font-size:12px;">Cinco integrantes del grupo campesino </tspan><tspan x="-3.432" y="12" style="fill:#FFFFFF; font-family:'ProximaNova-Regular'; font-size:12px;">CODECA, en la mira por resistencia a los </tspan><tspan x="50.549" y="24" style="fill:#FFFFFF; font-family:'ProximaNova-Regular'; font-size:12px;">desalojos de tierras.</tspan></text>
	</g>
	<g>
		<rect x="1599.576" y="367.902" style="fill:none;" width="234.759" height="26.386"/>
		<text transform="matrix(1 0 0 1 1606.8937 377.8974)"><tspan x="0" y="0" style="fill:#FFFFFF; font-family:'ProximaNova-Regular'; font-size:12px;">Medardo Alonzo Lucero, defensor ch’orti’, </tspan><tspan x="12.57" y="12" style="fill:#FFFFFF; font-family:'ProximaNova-Regular'; font-size:12px;">en la mira por resistencia a la minería</tspan></text>
	</g>
	<g>
		<text transform="matrix(1 0 0 1 1549.5885 452.3148)"><tspan x="0" y="0" style="fill:#FFFFFF; font-family:'ProximaNova-Regular'; font-size:12px;">Defensor xinka Alejandro Hernández García,  </tspan><tspan x="0" y="12" style="fill:#FFFFFF; font-family:'ProximaNova-Regular'; font-size:12px;">en la mira por resistencia a la minería</tspan></text>
	</g>
	
		<line style="display:none;fill:none;stroke:#FFFFFF;stroke-miterlimit:10;" x1="1753.469" y1="184.079" x2="1753.469" y2="159.99"/>
	
		<line style="display:none;fill:none;stroke:#FFFFFF;stroke-miterlimit:10;" x1="1716.956" y1="367.507" x2="1716.956" y2="349.21"/>
	<g>
		<rect x="1418.881" y="299.168" style="fill:none;" width="232.838" height="28.855"/>
		<text transform="matrix(1 0 0 1 1420.6838 309.1639)"><tspan x="0" y="0" style="fill:#FFFFFF; font-family:'ProximaNova-Regular'; font-size:12px;">Paulina Cruz Ruiz, autoridad ancestral maya </tspan><tspan x="3.402" y="12" style="fill:#FFFFFF; font-family:'ProximaNova-Regular'; font-size:12px;">achi, en la mira por resistencia a la minería</tspan></text>
	</g>
	
		<line style="display:none;fill:none;stroke:#FFFFFF;stroke-miterlimit:10;" x1="1535.075" y1="299.731" x2="1535.075" y2="284.189"/>
	
		<line style="display:none;fill:none;stroke:#FFFFFF;stroke-miterlimit:10;" x1="1528.406" y1="455.339" x2="1546.06" y2="455.339"/>
</g>
</svg>
